HIERARCHY
ROOT Hips
{
	OFFSET 0.000000 0.000000 0.000000
	CHANNELS 6 Xposition Yposition Zposition Xrotation Yrotation Zrotation
	JOINT LeftUpLeg_virtual
	{
		OFFSET 0.000000 0.000000 0.000000
		CHANNELS 3 Xrotation Yrotation Zrotation
		JOINT LeftUpLeg
		{
			OFFSET 10.205400 -3.823500 0.155100
			CHANNELS 3 Xrotation Yrotation Zrotation
			JOINT LeftLeg
			{
				OFFSET 0.708757 -12.982077 0.567790
				CHANNELS 3 Xrotation Yrotation Zrotation
				JOINT LeftFoot
				{
					OFFSET -0.708756 -10.717838 -2.184338
					CHANNELS 3 Xrotation Yrotation Zrotation
					JOINT LeftToeBase
					{
						OFFSET 0.108149 -7.191104 7.560241
						CHANNELS 3 Xrotation Yrotation Zrotation
						JOINT LeftToe_End
						{
							OFFSET 0.070230 0.081724 4.490308
							CHANNELS 3 Xrotation Yrotation Zrotation
							End Site
							{
								OFFSET 0 0 0
							}
						}
					}
				}
			}
		}
	}
	JOINT RightUpLeg_virtual
	{
		OFFSET 0.000000 0.000000 0.000000
		CHANNELS 3 Xrotation Yrotation Zrotation
		JOINT RightUpLeg
		{
			OFFSET -10.205400 -3.823500 0.005500
			CHANNELS 3 Xrotation Yrotation Zrotation
			JOINT RightLeg
			{
				OFFSET -0.708756 -12.982134 0.610632
				CHANNELS 3 Xrotation Yrotation Zrotation
				JOINT RightFoot
				{
					OFFSET 0.708754 -10.717769 -1.945823
					CHANNELS 3 Xrotation Yrotation Zrotation
					JOINT RightToeBase
					{
						OFFSET -0.108140 -7.191069 7.372968
						CHANNELS 3 Xrotation Yrotation Zrotation
						JOINT RightToe_End
						{
							OFFSET -0.070227 0.081735 4.479403
							CHANNELS 3 Xrotation Yrotation Zrotation
							End Site
							{
								OFFSET 0 0 0
							}
						}
					}
				}
			}
		}
	}
	JOINT Spine_virtual
	{
		OFFSET 0.000000 0.000000 0.000000
		CHANNELS 3 Xrotation Yrotation Zrotation
		JOINT Spine
		{
			OFFSET 0.000000 6.876099 0.125700
			CHANNELS 3 Xrotation Yrotation Zrotation
			JOINT Spine1
			{
				OFFSET 0.000000 5.730043 0.104720
				CHANNELS 3 Xrotation Yrotation Zrotation
				JOINT Spine1_split
				{
					OFFSET 0.000000 5.730043 0.104720
					CHANNELS 3 Xrotation Yrotation Zrotation
					JOINT Spine2
					{
						OFFSET 0.000000 5.730043 0.104720
						CHANNELS 3 Xrotation Yrotation Zrotation
						JOINT Neck_virtual
						{
							OFFSET 0.000000 0.000000 0.000000
							CHANNELS 3 Xrotation Yrotation Zrotation
							JOINT Neck
							{
								OFFSET 0.000000 10.314075 0.188496
								CHANNELS 3 Xrotation Yrotation Zrotation
								JOINT Head
								{
									OFFSET 0.000000 7.643700 -2.377400
									CHANNELS 3 Xrotation Yrotation Zrotation
									JOINT HeadTop_End
									{
										OFFSET 0.000000 43.788605 -13.619600
										CHANNELS 3 Xrotation Yrotation Zrotation
										End Site
										{
											OFFSET 0 0 0
										}
									}
								}
							}
						}
						JOINT LeftShoulder_virtual
						{
							OFFSET 0.000000 0.000000 0.000000
							CHANNELS 3 Xrotation Yrotation Zrotation
							JOINT LeftShoulder
							{
								OFFSET 2.196100 4.412489 0.087492
								CHANNELS 3 Xrotation Yrotation Zrotation
								JOINT LeftShoulder_split
								{
									OFFSET 2.196100 4.412489 0.087492
									CHANNELS 3 Xrotation Yrotation Zrotation
									JOINT LeftArm
									{
										OFFSET 8.771219 -2.981674 -0.026999
										CHANNELS 3 Xrotation Yrotation Zrotation
										JOINT LeftForeArm
										{
											OFFSET 8.512804 0.000000 -0.000000
											CHANNELS 3 Xrotation Yrotation Zrotation
											JOINT LeftHand
											{
												OFFSET 18.484802 0.000000 -0.000000
												CHANNELS 3 Xrotation Yrotation Zrotation
												End Site
												{
													OFFSET 0 0 0
												}
											}
										}
									}
								}
							}
						}
						JOINT RightShoulder_virtual
						{
							OFFSET 0.000000 0.000000 0.000000
							CHANNELS 3 Xrotation Yrotation Zrotation
							JOINT RightShoulder
							{
								OFFSET -2.196100 4.412496 0.070690
								CHANNELS 3 Xrotation Yrotation Zrotation
								JOINT RightShoulder_split
								{
									OFFSET -2.196100 4.412496 0.070690
									CHANNELS 3 Xrotation Yrotation Zrotation
									JOINT RightArm
									{
										OFFSET -8.771282 -2.981682 -0.094208
										CHANNELS 3 Xrotation Yrotation Zrotation
										JOINT RightForeArm
										{
											OFFSET -8.494598 0.000000 0.000000
											CHANNELS 3 Xrotation Yrotation Zrotation
											JOINT RightHand
											{
												OFFSET -18.483803 0.000000 0.000001
												CHANNELS 3 Xrotation Yrotation Zrotation
												End Site
												{
													OFFSET 0 0 0
												}
											}
										}
									}
								}
							}
						}
					}
				}
			}
		}
	}
}
MOTION
Frames: 9
Frame Time: 0.03333333
-14.070977 17.658497 116.006798 0.000000 0.000000 0.000000 -170.017533 13.970699 -177.214968 -87.970296 -2.724495 43.352495 118.391221 -10.789383 -4.593890 -15.039284 -9.950074 8.069637 -0.468326 0.000010 0.000001 0.000000 0.000000 0.000000 -170.017533 13.970699 -177.214968 -96.562421 19.036147 -24.135862 124.955961 4.926098 2.862060 -14.376705 2.464555 -7.567913 -0.706116 -0.000007 -0.000001 0.000000 0.000000 0.000000 -170.017533 13.970699 -177.214968 16.784562 -3.598821 -9.089395 3.969192 -0.741156 -2.119501 0.000000 0.000000 0.000000 0.000000 0.000000 0.000000 3.979507 -0.739450 -2.101520 0.912699 0.186795 0.154901 -20.090709 -2.727745 8.655178 0.000000 0.000000 0.000000 3.979507 -0.739450 -2.101520 1.384100 -5.715076 -11.757722 0.000000 0.000000 0.000000 -18.360583 -40.146237 -47.046155 -0.000016 -56.855471 -0.000039 0.000000 0.000000 0.000000 3.979507 -0.739450 -2.101520 -4.126452 21.353063 -2.025791 0.000000 0.000000 0.000000 -21.913711 29.410764 24.489274 179.999991 72.353553 179.999991 0.000000 0.000000 0.000000 
-14.065706 17.660599 116.005287 0.000000 0.000000 0.000000 -170.068377 13.982470 -177.221853 -88.004317 -2.779784 43.308928 118.396958 -10.793114 -4.588365 -15.047445 -9.905016 8.062590 -0.465213 0.000003 0.000000 0.000000 0.000000 0.000000 -170.068377 13.982470 -177.221853 -96.602364 18.975836 -24.127671 124.944541 4.918576 2.871983 -14.386820 2.466663 -7.593977 -0.707335 -0.000005 -0.000002 0.000000 0.000000 0.000000 -170.068377 13.982470 -177.221853 16.763239 -3.572622 -9.060050 3.953009 -0.732003 -2.129827 0.000000 0.000000 0.000000 0.000000 0.000000 0.000000 3.963044 -0.728872 -2.113284 0.909229 0.164210 0.204961 -20.937807 -2.917530 8.648818 0.000000 0.000000 0.000000 3.963044 -0.728872 -2.113284 1.385779 -5.726419 -11.728820 0.000000 0.000000 0.000000 -18.401735 -40.104269 -47.092768 0.000009 -56.770770 0.000001 0.000000 0.000000 0.000000 3.963044 -0.728872 -2.113284 -4.382709 20.715689 -2.732445 0.000000 0.000000 0.000000 -23.680773 29.747871 24.695008 -179.999978 71.448130 179.999950 0.000000 0.000000 0.000000 
-14.062019 17.663258 116.003029 0.000000 0.000000 0.000000 -170.111981 14.000181 -177.240021 -88.020306 -2.862907 43.296788 118.407026 -10.828873 -4.588110 -15.055159 -9.851998 8.000934 -0.461275 0.000001 -0.000002 0.000000 0.000000 0.000000 -170.111981 14.000181 -177.240021 -96.635654 18.897902 -24.121527 124.908901 4.908719 2.883933 -14.383987 2.470321 -7.629128 -0.708443 0.000008 -0.000009 0.000000 0.000000 0.000000 -170.111981 14.000181 -177.240021 16.741968 -3.562484 -9.027050 3.936247 -0.726284 -2.133479 0.000000 0.000000 0.000000 0.000000 0.000000 0.000000 3.946138 -0.719991 -2.117367 0.903842 0.149311 0.259418 -21.909468 -3.057866 8.701504 0.000000 0.000000 0.000000 3.946138 -0.719991 -2.117367 1.383550 -5.752320 -11.707936 0.000000 0.000000 0.000000 -18.417701 -40.033812 -47.130737 0.000000 -56.739826 0.000010 0.000000 0.000000 0.000000 3.946138 -0.719991 -2.117367 -4.607643 20.141297 -3.226531 0.000000 0.000000 0.000000 -25.254310 30.109311 24.691906 180.000005 70.810559 179.999978 0.000000 0.000000 0.000000 
-14.057456 17.664330 116.000854 0.000000 0.000000 0.000000 -170.147785 14.015436 -177.254078 -88.027273 -2.925868 43.275088 118.420208 -10.846344 -4.582785 -15.090535 -9.805036 7.977774 -0.461239 -0.000010 0.000000 0.000000 0.000000 0.000000 -170.147785 14.015436 -177.254078 -96.652224 18.851681 -24.158721 124.898369 4.945944 2.905726 -14.398365 2.472605 -7.632928 -0.709418 0.000009 0.000002 0.000000 0.000000 0.000000 -170.147785 14.015436 -177.254078 16.692031 -3.557005 -8.973485 3.916781 -0.723954 -2.135149 0.000000 0.000000 0.000000 0.000000 0.000000 0.000000 3.926629 -0.716453 -2.119210 0.892066 0.138526 0.310170 -22.891043 -3.147279 8.763348 0.000000 0.000000 0.000000 3.926629 -0.716453 -2.119210 1.380643 -5.788626 -11.682103 0.000000 0.000000 0.000000 -18.393621 -39.973388 -47.156415 0.000024 -56.711361 0.000006 0.000000 0.000000 0.000000 3.926629 -0.716453 -2.119210 -4.867056 19.612528 -3.735004 0.000000 0.000000 0.000000 -26.682767 30.496194 24.731869 179.999964 70.312508 -179.999978 0.000000 0.000000 0.000000 
-14.056218 17.668850 115.998398 0.000000 0.000000 0.000000 -170.260265 14.045621 -177.298993 -88.142143 -3.059635 43.270618 118.449851 -10.872655 -4.579178 -15.088484 -9.756709 7.960501 -0.475824 -0.000015 0.000002 0.000000 0.000000 0.000000 -170.260265 14.045621 -177.298993 -96.734275 18.702866 -24.119071 124.822691 4.912414 2.922746 -14.390997 2.476541 -7.681166 -0.710258 0.000000 0.000007 0.000000 0.000000 0.000000 -170.260265 14.045621 -177.298993 16.623446 -3.556237 -8.909884 3.896361 -0.724741 -2.135320 0.000000 0.000000 0.000000 0.000000 0.000000 0.000000 3.906194 -0.716056 -2.119339 0.874061 0.130489 0.353804 -23.736869 -3.216739 8.766211 0.000000 0.000000 0.000000 3.906194 -0.716056 -2.119339 1.382993 -5.816934 -11.640385 0.000000 0.000000 0.000000 -18.324815 -39.978545 -47.169157 -0.000001 -56.633186 -0.000018 0.000000 0.000000 0.000000 3.906194 -0.716056 -2.119339 -5.111813 19.128717 -4.298326 0.000000 0.000000 0.000000 -28.006655 30.826099 24.873464 179.999991 69.945365 179.999978 0.000000 0.000000 0.000000 
-14.056544 17.672539 115.994911 0.000000 0.000000 0.000000 -170.324987 14.047226 -177.330193 -88.203683 -3.148741 43.254680 118.470246 -10.905906 -4.578254 -15.098439 -9.705787 7.911621 -0.500314 0.000001 0.000003 0.000000 0.000000 0.000000 -170.324987 14.047226 -177.330193 -96.740798 18.627755 -24.135669 124.781628 4.916398 2.939022 -14.409402 2.474678 -7.695449 -0.711461 0.000010 -0.000003 0.000000 0.000000 0.000000 -170.324987 14.047226 -177.330193 16.570368 -3.581523 -8.850625 3.878882 -0.732316 -2.134468 0.000000 0.000000 0.000000 0.000000 0.000000 0.000000 3.888970 -0.722525 -2.118298 0.855354 0.122780 0.391980 -24.468063 -3.287823 8.717435 0.000000 0.000000 0.000000 3.888970 -0.722525 -2.118298 1.396333 -5.822750 -11.591447 0.000000 0.000000 0.000000 -18.228009 -40.018157 -47.167989 -0.000009 -56.503560 -0.000000 0.000000 0.000000 0.000000 3.888970 -0.722525 -2.118298 -5.339009 18.694206 -4.882489 0.000000 0.000000 0.000000 -29.250808 31.095782 25.087949 179.999978 69.676447 -180.000005 0.000000 0.000000 0.000000 
-14.057085 17.677021 115.992210 0.000000 0.000000 0.000000 -170.362991 14.056183 -177.361681 -88.235198 -3.212748 43.233530 118.485259 -10.925607 -4.573835 -15.107542 -9.665146 7.908440 -0.498131 0.000007 -0.000000 0.000000 0.000000 0.000000 -170.362991 14.056183 -177.361681 -96.728702 18.547203 -24.144652 124.747299 4.908339 2.948984 -14.425674 2.466275 -7.714834 -0.712994 0.000002 0.000004 0.000000 0.000000 0.000000 -170.362991 14.056183 -177.361681 16.516582 -3.630822 -8.793473 3.861886 -0.746665 -2.133065 0.000000 0.000000 0.000000 0.000000 0.000000 0.000000 3.872400 -0.735073 -2.116611 0.838849 0.113118 0.425595 -25.169199 -3.405255 8.675075 0.000000 0.000000 0.000000 3.872400 -0.735073 -2.116611 1.411816 -5.818789 -11.549929 0.000000 0.000000 0.000000 -18.123045 -40.048541 -47.157856 -0.000007 -56.337504 -0.000006 0.000000 0.000000 0.000000 3.872400 -0.735073 -2.116611 -5.581645 18.306220 -5.408062 0.000000 0.000000 0.000000 -30.424965 31.323770 25.328537 179.999991 69.498322 179.999978 0.000000 0.000000 0.000000 
-14.058813 17.679512 115.989288 0.000000 0.000000 0.000000 -170.398876 14.035777 -177.384084 -88.292817 -3.252974 43.188082 118.495026 -10.935472 -4.568670 -15.104369 -9.626675 7.904564 -0.473192 -0.000001 -0.000002 0.000000 0.000000 0.000000 -170.398876 14.035777 -177.384084 -96.679661 18.524825 -24.194087 124.743351 4.951389 2.964579 -14.491148 2.440399 -7.694408 -0.714798 0.000013 -0.000005 0.000000 0.000000 0.000000 -170.398876 14.035777 -177.384084 16.429528 -3.654987 -8.729768 3.837521 -0.757857 -2.131591 0.000000 0.000000 0.000000 0.000000 0.000000 0.000000 3.848324 -0.745023 -2.114814 0.821632 0.096766 0.451034 -25.848636 -3.606678 8.637415 0.000000 0.000000 0.000000 3.848324 -0.745023 -2.114814 1.421329 -5.832053 -11.524414 0.000000 0.000000 0.000000 -18.013661 -40.082982 -47.146200 -0.000016 -56.142632 -0.000008 0.000000 0.000000 0.000000 3.848324 -0.745023 -2.114814 -5.843885 17.930174 -5.879742 0.000000 0.000000 0.000000 -31.525746 31.461170 25.621030 179.999964 69.388985 179.999991 0.000000 0.000000 0.000000 
-14.059778 17.680588 115.981354 0.000000 0.000000 0.000000 -170.483284 14.022996 -177.426294 -88.418206 -3.363671 43.181760 118.537441 -10.986616 -4.565932 -15.095584 -9.576371 7.899759 -0.466181 -0.000003 -0.000002 0.000000 0.000000 0.000000 -170.483284 14.022996 -177.426294 -96.687106 18.452772 -24.181421 124.720347 4.930575 2.975472 -14.533077 2.432103 -7.696559 -0.716705 0.000021 0.000003 0.000000 0.000000 0.000000 -170.483284 14.022996 -177.426294 16.338564 -3.650123 -8.673452 3.808292 -0.759803 -2.130518 0.000000 0.000000 0.000000 0.000000 0.000000 0.000000 3.819112 -0.747466 -2.113440 0.799348 0.076279 0.469650 -26.512368 -3.829114 8.565505 0.000000 0.000000 0.000000 3.819112 -0.747466 -2.113440 1.427676 -5.860080 -11.507442 0.000000 0.000000 0.000000 -17.910228 -40.131890 -47.135921 -0.000010 -55.938197 0.000003 0.000000 0.000000 0.000000 3.819112 -0.747466 -2.113440 -6.123178 17.547094 -6.333263 0.000000 0.000000 0.000000 -32.524063 31.486100 25.944781 179.999964 69.298526 -179.999991 0.000000 0.000000 0.000000 
